<svg id="Layer_1" data-name="Layer 1" xmlns="http://www.w3.org/2000/svg" viewBox="0 0 630.51 700.15"><defs><style>.cls-1{fill:none;stroke:#2f2f30;stroke-miterlimit:10;stroke-width:4px;}</style></defs><circle class="cls-1" cx="315.25" cy="350.04" r="89.83"/><line class="cls-1" y1="350.04" x2="630.51" y2="350.04"/><polyline class="cls-1" points="174.21 0.04 174.21 138.75 454.44 138.75 454.44 0.04"/><polyline class="cls-1" points="239.31 0.04 239.31 74.3 389.33 74.3 389.33 0"/><path class="cls-1" d="M364,137.69a48.15,48.15,0,1,1-96.3,0" transform="translate(-0.68 0.27)"/><polyline class="cls-1" points="174.21 700.04 174.21 561.33 454.44 561.33 454.44 700.03"/><polyline class="cls-1" points="239.31 700.04 239.31 625.78 389.33 625.78 389.33 700.15"/><path class="cls-1" d="M364,561.85a48.15,48.15,0,1,0-96.3,0" transform="translate(-0.68 0.27)"/></svg>