    <svg width="1500" height="1300" viewBox="0 0 904 650" fill="none" xmlns="http://www.w3.org/2000/svg">
    <path d="M903 649.439H1L120.311 1H783.788L903 649.439Z" fill="#404040" stroke="#696969" stroke-miterlimit="10"/>
    <path d="M69.8843 275.038H834.169" stroke="#696969" stroke-miterlimit="10"/>
    <path d="M550.992 275.425C553.194 321.703 508.921 360.763 452.019 360.763C395.117 360.763 350.853 321.703 353.062 275.425C355.172 231.123 399.452 196.564 452.035 196.564C504.618 196.564 548.89 231.115 550.992 275.425Z" stroke="#696969" stroke-miterlimit="10"/>
    <path d="M541.288 71.4008C543.078 109.009 503.086 140.632 451.897 140.632C400.708 140.632 360.732 109.017 362.53 71.4008C364.259 35.2446 404.251 6.93591 451.92 6.93591C499.582 6.93591 539.574 35.2446 541.288 71.4008Z" stroke="#696969" stroke-miterlimit="10"/>
    <path d="M269.125 96.4996H640.093L630.663 1.1532H278.312L269.125 96.4996Z" fill="#404040" stroke="#696969" stroke-miterlimit="10"/>
    <path d="M371.922 54.7625H532.542L530.219 1.13715H374.245L371.922 54.7625Z" stroke="#696969" stroke-miterlimit="10"/>
    <path d="M343.464 530.333C346.061 474.554 395.78 431.261 454.624 431.261C513.469 431.261 563.279 474.554 565.998 530.333C568.855 588.91 519.151 638.6 454.853 638.6C390.554 638.6 340.737 588.91 343.471 530.333H343.464Z" stroke="#696969" stroke-miterlimit="10"/>
    <path d="M675.597 492.572H227.26L211.911 649.198H690.84L675.597 492.572Z" fill="#404040" stroke="#696969" stroke-miterlimit="10"/>
    <path d="M556.362 556.642H352.353L348.43 649.238H560.453L556.362 556.642Z" stroke="#696969" stroke-miterlimit="10"/>
    </svg>